HIERARCHY
ROOT Hips
{
	OFFSET 0.000000 0.000000 0.000000
	CHANNELS 6 Xposition Yposition Zposition Zrotation Yrotation Xrotation 
	JOINT LHipJoint
	{
		OFFSET 0.000000 0.000000 0.000000
		CHANNELS 3 Zrotation Yrotation Xrotation
		JOINT LeftUpLeg
		{
			OFFSET 1.363060 -1.794630 0.839290
			CHANNELS 3 Zrotation Yrotation Xrotation
			JOINT LeftLeg
			{
				OFFSET 2.448110 -6.726130 0.000000
				CHANNELS 3 Zrotation Yrotation Xrotation
				JOINT LeftFoot
				{
					OFFSET 2.562200 -7.039590 0.000000
					CHANNELS 3 Zrotation Yrotation Xrotation
					JOINT LeftToeBase
					{
						OFFSET 0.157640 -0.433110 2.322550
						CHANNELS 3 Zrotation Yrotation Xrotation
						End Site
						{
							OFFSET 0.000000 0.000000 0.000000
						}
					}
				}
			}
		}
	}
	JOINT RHipJoint
	{
		OFFSET 0.000000 0.000000 0.000000
		CHANNELS 3 Zrotation Yrotation Xrotation
		JOINT RightUpLeg
		{
			OFFSET -1.305520 -1.794630 0.839290
			CHANNELS 3 Zrotation Yrotation Xrotation
			JOINT RightLeg
			{
				OFFSET -2.542530 -6.985550 0.000000
				CHANNELS 3 Zrotation Yrotation Xrotation
				JOINT RightFoot
				{
					OFFSET -2.568260 -7.056230 0.000000
					CHANNELS 3 Zrotation Yrotation Xrotation
					JOINT RightToeBase
					{
						OFFSET -0.164730 -0.452590 2.363150
						CHANNELS 3 Zrotation Yrotation Xrotation
						End Site
						{
							OFFSET 0.000000 0.000000 0.000000
						}
					}
				}
			}
		}
	}
}
MOTION
Frames: 28
Frame Time: 0.008333
4.761663 17.241498 3.077374 -68.228943 -81.782870 110.965753 -12.201680 -4.078554 -0.085414 -3.696109 -3.771651 -51.627220 -1.510264 -0.958105 12.806583 1.350806 5.846530 -4.537761 0.788100 0.000000 -34.031500 5.107991 -2.062506 12.953333 -5.329832 17.180482 -115.675838 7.547310 2.454948 1.032724 0.607962 -1.815135 10.415468 -2.873300 0.000000 -74.278100
4.764031 17.236168 3.076709 -70.389794 -81.666190 113.352906 -12.076808 -4.063450 -0.154700 -3.908696 -3.327284 -51.943489 -1.608859 -0.969127 12.757777 1.296404 5.539201 -4.561231 0.759800 -0.000001 -33.951700 5.168478 -2.101797 12.940134 -5.345769 17.572144 -115.390256 7.575353 2.302183 1.379117 0.989248 -0.486457 11.144708 -2.320700 0.000000 -74.432300
4.773793 17.243065 3.050533 -76.932370 -81.588951 119.603283 -11.542483 -3.877262 -0.606387 -4.893255 -2.227383 -51.257204 -1.858700 -1.017236 12.257589 1.225741 5.240953 -4.588146 0.721000 0.000001 -33.768101 5.387601 -1.884464 12.809621 -5.567606 18.377116 -114.236033 7.357055 2.243953 1.291964 1.376230 1.091819 11.763820 -1.594000 -0.000000 -74.774700
4.771604 17.241574 3.045551 -78.385365 -81.537020 121.108204 -11.419525 -3.788830 -0.619252 -5.174771 -1.937415 -51.273944 -1.948309 -1.044230 11.977899 1.175756 4.996077 -4.515948 0.708200 0.000000 -33.672800 5.377528 -1.801133 12.723955 -5.395106 18.497583 -112.902672 7.376024 2.373121 0.479355 1.702233 2.481888 12.024496 -0.952500 0.000000 -75.234499
4.767093 17.241615 3.038467 -79.341446 -81.561963 122.018597 -11.308624 -3.675745 -0.605551 -5.494020 -1.745539 -51.124112 -2.032267 -1.080090 11.600957 1.127722 4.781784 -4.404931 0.701000 0.000000 -33.568200 5.342549 -1.677623 12.595495 -5.127910 18.472630 -111.117056 7.366695 2.602146 -0.735320 1.950927 3.680328 12.065033 -0.393201 -0.000000 -75.812800
4.760310 17.242877 3.029343 -79.763811 -81.672768 122.292632 -11.213672 -3.542987 -0.567798 -5.850546 -1.649941 -50.809797 -2.110686 -1.123013 11.148354 1.080709 4.589820 -4.264874 0.697100 -0.000000 -33.457600 5.294036 -1.522311 12.421410 -4.767151 18.305922 -108.947449 7.314102 2.891916 -2.204958 2.103221 4.563730 11.932152 0.020000 -0.000000 -76.465700
4.751848 17.245559 3.017574 -79.676956 -81.878181 121.942723 -11.129111 -3.391866 -0.513936 -6.244809 -1.655904 -50.303619 -2.181759 -1.173198 10.617299 1.037533 4.437851 -4.094125 0.698200 0.000000 -33.347800 5.248407 -1.335600 12.191990 -4.310665 18.003209 -106.443660 7.205573 3.202145 -3.790402 2.153792 5.060171 11.683515 0.257001 -0.000000 -77.117800
4.741026 17.248925 3.003774 -79.028241 -82.163695 120.934320 -11.061217 -3.228865 -0.443604 -6.668680 -1.738437 -49.649825 -2.247816 -1.226240 10.049374 0.994767 4.298488 -3.910695 0.699600 0.000000 -33.240300 5.215732 -1.134309 11.920842 -3.762276 17.583399 -103.709937 7.046178 3.496511 -5.347861 2.103830 5.114402 11.374148 0.300600 0.000000 -77.703700
4.728009 17.252944 2.987698 -77.842034 -82.517960 119.298891 -11.004561 -3.055333 -0.361502 -7.115782 -1.889884 -48.854447 -2.308073 -1.281278 9.449592 0.954407 4.182007 -3.715267 0.702800 -0.000000 -33.142400 5.208558 -0.924601 11.612413 -3.132792 17.061370 -100.820740 6.840371 3.746496 -6.761839 1.961976 4.723750 11.052576 0.161100 -0.000001 -78.144601
4.712415 17.257177 2.970037 -76.090121 -82.913878 117.030206 -10.962234 -2.876052 -0.266676 -7.572802 -2.082613 -47.968951 -2.364071 -1.334485 8.852273 0.914240 4.068310 -3.520884 0.704600 -0.000000 -33.054600 5.230054 -0.722032 11.282860 -2.432915 16.458898 -97.865832 6.603438 3.935329 -7.941497 1.739501 3.910128 10.756784 -0.143500 0.000000 -78.349900
4.695167 17.262307 2.949739 -73.922279 -83.346849 114.276087 -10.915216 -2.686628 -0.167942 -8.034109 -2.332585 -46.950004 -2.411123 -1.390343 8.210769 0.883300 4.018203 -3.307127 0.714000 -0.000000 -32.988299 5.293584 -0.520524 10.925077 -1.695707 15.785185 -94.881739 6.336025 4.048292 -8.814220 1.451575 2.749781 10.508496 -0.575500 -0.000000 -78.289400
4.675229 17.267511 2.928550 -71.260394 -83.776119 110.994878 -10.876521 -2.495257 -0.056718 -8.478864 -2.597921 -45.894154 -2.452590 -1.442760 7.586447 0.855179 3.981896 -3.098082 0.723900 0.000000 -32.938700 5.387979 -0.342974 10.564270 -0.940564 15.065449 -91.954431 6.058931 4.087422 -9.339094 1.111212 1.305089 10.316176 -1.112199 -0.000000 -77.867700
4.652763 17.273005 2.906735 -68.187692 -84.183248 107.279818 -10.841661 -2.302892 0.064773 -8.897189 -2.867834 -44.812683 -2.487628 -1.491888 6.978758 0.831504 3.968395 -2.893933 0.735701 0.000000 -32.901800 5.510144 -0.192348 10.202526 -0.199081 14.315607 -89.112262 5.777906 4.053829 -9.490175 0.734807 -0.322789 10.171611 -1.716800 -0.000001 -77.094900
4.618958 17.271580 2.908603 -57.844971 -84.312365 96.669740 -11.175035 -2.197008 0.592042 -8.559465 -3.947030 -44.571611 -2.367084 -1.485109 6.837395 0.830328 3.970420 -2.748023 0.748200 -0.000000 -32.924000 5.394598 -0.169369 9.868688 0.972571 13.017360 -86.612545 5.729473 4.062737 -9.526319 0.343283 -2.129783 10.019162 -2.413700 -0.000000 -75.930800
4.592424 17.278436 2.886298 -54.262567 -84.580514 92.414266 -11.125156 -1.994126 0.729396 -8.896151 -4.212649 -43.474473 -2.386924 -1.524878 6.273236 0.820052 4.022008 -2.565672 0.765300 -0.000000 -32.918900 5.559167 -0.057097 9.501780 1.580674 12.265240 -83.978795 5.446337 3.894393 -8.893140 -0.057673 -3.822897 9.882129 -3.042099 0.000000 -74.597600
4.564148 17.285842 2.864415 -50.693017 -84.792158 88.167208 -11.073761 -1.797572 0.874566 -9.176918 -4.463686 -42.389565 -2.398199 -1.561469 5.736928 0.815815 4.104268 -2.393351 0.785700 -0.000000 -32.930400 5.732819 0.024449 9.139985 2.055639 11.545418 -81.450129 5.157413 3.667319 -7.876891 -0.453062 -5.434563 9.690251 -3.631700 -0.000000 -73.156699
4.534358 17.293722 2.843185 -47.261252 -84.942558 84.055870 -11.023239 -1.610586 1.025354 -9.396973 -4.690275 -41.328432 -2.401330 -1.593781 5.242081 0.816125 4.206088 -2.238052 0.807199 -0.000000 -32.959199 5.905974 0.076575 8.783582 2.377375 10.888092 -79.013547 4.859722 3.387837 -6.489689 -0.832826 -6.907462 9.408705 -4.150300 0.000000 -71.746000
4.503461 17.302026 2.822711 -44.085690 -85.030509 80.196707 -10.975940 -1.435717 1.178618 -9.555353 -4.882051 -40.298307 -2.397267 -1.620657 4.801709 0.819146 4.314001 -2.107170 0.827500 -0.000000 -33.006199 6.070313 0.102146 8.430800 2.546202 10.323653 -76.652286 4.551565 3.061537 -4.744891 -1.187653 -8.197199 9.013107 -4.569500 0.000000 -70.487500
4.471887 17.310660 2.802914 -41.254567 -85.057710 76.673206 -10.934453 -1.274389 1.331620 -9.653895 -5.030250 -39.303523 -2.387182 -1.640860 4.428589 0.822920 4.413518 -2.008088 0.843400 -0.000000 -33.074500 6.219401 0.105074 8.077457 2.588799 9.874367 -74.350638 4.235061 2.693510 -2.657953 -1.507129 -9.265542 8.493810 -4.865000 -0.000001 -69.478100
4.440018 17.319511 2.783545 -38.803782 -85.030999 73.515245 -10.899753 -1.126327 1.482879 -9.695983 -5.136685 -38.336931 -2.371300 -1.654169 4.124148 0.827184 4.502504 -1.943388 0.854100 0.000000 -33.167701 6.350871 0.091263 7.715349 2.552813 9.545445 -72.093705 3.915816 2.288228 -0.247636 -1.778498 -10.073645 7.854359 -5.016500 -0.000001 -68.758200
4.408079 17.328352 2.764327 -36.722569 -84.958680 70.707067 -10.872866 -0.989849 1.631737 -9.689839 -5.201461 -37.394547 -2.350942 -1.660093 3.892633 0.830892 4.573443 -1.916721 0.858000 -0.000000 -33.286200 6.465616 0.066493 7.335629 2.502137 9.321455 -69.869739 3.603780 1.851501 2.454209 -1.987293 -10.585363 7.113740 -5.012400 0.000000 -68.311100
4.376324 17.336952 2.745034 -34.962834 -84.849566 68.194622 -10.854134 -0.862324 1.777643 -9.648613 -5.222768 -36.475915 -2.328421 -1.658018 3.740442 0.832496 4.615210 -1.932543 0.852900 0.000000 -33.424300 6.568124 0.036277 6.931116 2.500220 9.166997 -67.668337 3.309932 1.391874 5.393596 -2.120952 -10.779274 6.306404 -4.856400 -0.000000 -68.123900
4.344544 17.344909 2.725388 -33.443166 -84.713395 65.904193 -10.842937 -0.740124 1.924234 -9.583086 -5.210858 -35.589488 -2.305201 -1.648510 3.667915 0.831938 4.626902 -1.990863 0.838900 -0.000000 -33.578600 6.665350 0.004038 6.502036 2.591387 9.036488 -65.488953 3.043750 0.921997 8.495115 -2.172819 -10.653533 5.462280 -4.565399 -0.000000 -68.014400
4.313796 17.352573 2.704409 -32.036943 -84.577873 63.690791 -10.829523 -0.621098 2.065593 -9.507636 -5.204930 -34.669076 -2.278231 -1.635505 3.620752 0.836060 4.663462 -2.068903 0.825299 0.000000 -33.742700 6.772988 -0.018337 6.033388 2.786754 8.863970 -63.293617 2.805406 0.452794 11.671203 -2.140902 -10.220743 4.628734 -4.166300 -0.000000 -68.081700
4.283009 17.359165 2.682493 -30.704506 -84.438707 61.550904 -10.817934 -0.502843 2.209130 -9.431205 -5.194483 -33.783134 -2.252467 -1.617888 3.632563 0.840280 4.688709 -2.178499 0.806800 0.000000 -33.908400 6.891536 -0.039778 5.552906 3.086588 8.627435 -61.112861 2.600244 0.006625 14.802241 -2.040727 -9.550830 3.826673 -3.706200 0.000000 -68.016700
4.252395 17.364745 2.659412 -29.398632 -84.306513 59.446465 -10.804385 -0.385143 2.352205 -9.363176 -5.191547 -32.928565 -2.228265 -1.597550 3.686526 0.846242 4.717067 -2.309977 0.786300 -0.000000 -34.068300 7.025391 -0.061670 5.072260 3.466173 8.305288 -58.943966 2.425205 -0.400434 17.780011 -1.891731 -8.719862 3.080407 -3.227800 0.000000 -67.795600
4.221612 17.369249 2.635314 -28.101064 -84.182776 57.383063 -10.788501 -0.268101 2.497685 -9.303471 -5.205125 -32.130627 -2.205893 -1.575820 3.779445 0.854399 4.751841 -2.458616 0.765199 -0.000000 -34.222200 7.172096 -0.090503 4.612150 3.897584 7.899609 -56.804846 2.278018 -0.754210 20.505154 -1.718822 -7.819944 2.399678 -2.770100 0.000000 -67.373400
4.191017 17.373051 2.609766 -26.787508 -84.083879 55.338480 -10.763710 -0.153403 2.640252 -9.256730 -5.259156 -31.351580 -2.182863 -1.556751 3.862806 0.869859 4.835964 -2.602292 0.750600 -0.000000 -34.361501 7.332331 -0.125025 4.178412 4.334557 7.421086 -54.687463 2.151937 -1.048656 22.912327 -1.544517 -6.930319 1.775717 -2.356200 0.000000 -66.761700
